<svg width="1024" height="1024" viewBox="0 0 1024 1024" xmlns="http://www.w3.org/2000/svg">
  <path fill="#343a43" d="M316.73 107.21l-0.33-0.31c-6.46-6.46-14.68-9.9-23.74-9.9-10.43 0-21.15 4.73-29.4 12.96-14.3 14.34-12.99 37.2 3.04 53.19 0.5 0.49 34.51 34.75-7.41 121.61-12.08 21.14-27.4 45.63-42.23 69.31l-3.5 5.68C140.23 478.16 40.36 640.3 136.89 900.3c3.6 16.48 16.81 26.7 34.61 26.7 3.18 0 8.35 0 13.26-4.14 18.5-8.25 28.32-30.65 21.09-48.71-85.73-224.63 0.66-363.59 70.07-475.24l2.15-3.46c6.1-9.15 11.98-18.14 17.62-26.78 10.68-16.34 20.76-31.77 30.67-45.62l0.35-0.49 0.27-0.53c66.71-133.5 3.16-202.37-10.25-214.82zM810.84 359.75l-3.5-5.68c-14.83-23.69-30.15-48.18-42.23-69.31-41.91-86.86-7.91-121.12-7.41-121.61 16.03-15.99 17.34-38.85 3.04-53.19-8.25-8.23-18.97-12.96-29.4-12.96-9.05 0-17.28 3.43-23.74 9.9l-0.33 0.31c-13.42 12.45-76.96 81.33-10.23 214.82l0.27 0.53 0.35 0.49c9.91 13.86 19.99 29.29 30.67 45.62 5.64 8.64 11.52 17.63 17.62 26.78l2.15 3.46c69.41 111.65 155.8 250.61 70.07 475.24-7.24 18.07 2.59 40.46 21.09 48.71 4.91 4.14 10.08 4.14 13.26 4.14 17.8 0 31.01-10.21 34.61-26.7 96.51-260-3.36-422.14-76.29-540.55z"/>
</svg>
