<svg width="1024" height="1024" viewBox="0 0 1024 1024" xmlns="http://www.w3.org/2000/svg">
  <path fill="#ffc329" d="M724.9 773.5c-168.92 0-174.53-85.66-174.54-86.52 0-18.78-16.95-35.26-36.28-35.26-0.69 0-1.39 0.11-2.08 0.15-0.7-0.04-1.39-0.15-2.09-0.15-19.32 0-36.28 16.48-36.28 35.26-0.01 0.86-5.62 86.52-174.54 86.52-22.31 0-37.9 15.58-37.9 37.89 0 22.33 15.58 37.92 37.9 37.92 117.5 0 179.81-35.55 212.9-73.06 33.09 37.51 95.4 73.06 212.9 73.06 22.31 0 37.9-15.59 37.9-37.92 0.01-22.31-15.58-37.89-37.89-37.89z"/>
</svg>
